<svg xmlns="http://www.w3.org/2000/svg" width="145.335" height="62.832" viewBox="0 0 145.335 62.832">
  <g id="logo" transform="translate(72.668 31.416)">
    <g id="logo-2" data-name="logo" transform="translate(-72.668 -31.416)">
      <path id="Path_104" data-name="Path 104" d="M135.772,0H10.039A9.562,9.562,0,0,0,.478,9.493L0,53.134a9.561,9.561,0,0,0,9.561,9.7H135.772a9.561,9.561,0,0,0,9.561-9.561V9.561A9.561,9.561,0,0,0,135.772,0ZM45.895,39.68a18.212,18.212,0,0,1-8.947,11.884c-8.674,5.122-22.2,4.849-31.143-.82l6.761-12.225c3.073,1.434,5.873,2.8,8.742,3.961a5.259,5.259,0,0,0,3.62.2,7.9,7.9,0,0,0,3.688-2.937c.683-1.3-2.322-2.117-3.62-2.664s-4.917-1.093-7.239-2.049c-5.259-2.117-7.376-6.625-6.078-12.157C13.8,14.342,21.854,7.513,31.143,6.693c6.215-.546,12.225-.137,17.825,3.893l-6.078,11.2c-2.937-1.024-5.532-1.981-8.264-2.664a6.078,6.078,0,0,0-3.688.273c-.888.41-1.434.478-1.707,1.776A2.368,2.368,0,0,0,30.938,23.7c2.459.82,5.054,1.229,7.513,2.117C45.143,28.07,47.534,32.782,45.895,39.68Zm45.963,14.41c-6.625,0-12.566.068-18.508-.137-.683,0-1.571-1.366-1.912-2.322a98.645,98.645,0,0,0-4.986-12.293l-2.39,14.615H47.6c.751-5.191,1.5-10.176,2.254-15.162C51.358,29.3,53,19.806,54.363,10.244c.41-2.664,1.3-3.688,4.1-3.551,7.239.341,14.547,0,21.786.615S92.2,12.02,92.951,17.484c1.093,8.4-2.117,14.274-9.357,17.279l-1.5.615Zm47.329-28.753c-1.912,8.878-8.605,14.41-17.689,14.479h-9.152l-2.39,14.069H93.77c.82-5.4,1.5-10.518,2.322-15.64,1.571-9.766,3.073-19.464,4.781-29.162C101.01,8.2,102.239,6.9,102.99,6.9c7.922,0,15.981-.341,23.835.478C137,8.469,141.3,15.3,139.187,25.338Z" transform="translate(0.001 0)" fill="#ed1b24"/>
      <path id="Path_105" data-name="Path 105" d="M104.147,28.7c-2.937-.137-2.254,2.185-2.527,3.825s-.478,2.664-.82,4.576a28.948,28.948,0,0,0,4.849-.546,4.288,4.288,0,0,0,3.142-4.986C108.517,29.244,106.2,28.834,104.147,28.7Z" transform="translate(-31.956 -9.096)" fill="#ed1b24"/>
      <path id="Path_106" data-name="Path 106" d="M168.942,28.7c-2.39-.137-2.049,1.912-2.322,3.347s-.478,3.073-.82,5.327c2.459-.41,4.917-.2,6.488-1.229a6.215,6.215,0,0,0,2.254-4.986C174.064,28.219,171.059,28.9,168.942,28.7Z" transform="translate(-52.564 -9.096)" fill="#ed1b24"/>
    </g>
  </g>
</svg>
